<?xml version="1.0" standalone="no"?>
<!DOCTYPE svg PUBLIC "-//W3C//DTD SVG 20010904//EN"
 "http://www.w3.org/TR/2001/REC-SVG-20010904/DTD/svg10.dtd">
<svg version="1.0" xmlns="http://www.w3.org/2000/svg"
 width="1080.000000pt" height="974.000000pt" viewBox="0 0 1080.000000 974.000000"
 preserveAspectRatio="xMidYMid meet">

<g transform="translate(0.000000,974.000000) scale(0.100000,-0.100000)"
fill="#000000" stroke="none">
<path d="M5495 9640 c-70 -11 -216 -62 -271 -96 -25 -16 -82 -49 -126 -74 -50
-29 -93 -63 -116 -92 -63 -78 -193 -223 -208 -231 -7 -4 -44 -3 -81 3 -89 15
-292 15 -372 0 -105 -19 -229 -68 -359 -143 -133 -75 -183 -119 -277 -241
-170 -220 -221 -361 -232 -636 -4 -105 -1 -147 20 -260 23 -123 31 -145 84
-243 55 -103 147 -223 239 -312 55 -53 238 -161 344 -203 99 -39 124 -63 115
-107 -27 -132 -75 -587 -75 -702 1 -167 64 -509 110 -593 7 -14 20 -71 27
-128 12 -89 20 -117 64 -205 53 -107 79 -141 144 -187 59 -42 207 -112 263
-124 33 -8 53 -31 45 -54 -3 -7 -39 -30 -81 -51 -43 -21 -97 -49 -122 -62 -25
-12 -85 -55 -135 -94 -49 -40 -117 -90 -150 -113 -76 -52 -330 -317 -370 -385
-16 -29 -49 -77 -72 -107 -47 -63 -144 -248 -169 -324 -9 -28 -30 -85 -47
-126 -36 -91 -52 -146 -76 -269 -11 -51 -25 -97 -32 -101 -22 -14 -267 -20
-690 -18 -341 3 -419 1 -432 -11 -21 -17 -23 -84 -3 -100 10 -8 421 -11 1536
-11 l1524 0 25 -24 c14 -13 45 -34 68 -46 55 -28 93 -20 155 32 l48 39 637 -1
c547 0 640 -2 649 -15 6 -9 14 -101 18 -232 10 -336 15 -438 27 -565 13 -134
26 -92 -103 -314 -134 -231 -279 -400 -385 -449 -105 -48 -161 -31 -188 57
-23 74 -34 398 -24 681 9 248 28 349 81 432 31 50 84 81 122 71 34 -8 66 -60
66 -108 0 -54 8 -68 40 -68 24 0 30 6 40 35 16 49 3 118 -31 165 -45 62 -70
73 -170 78 -76 4 -94 1 -135 -19 -114 -55 -210 -218 -244 -414 -6 -33 -17 -87
-25 -120 -7 -33 -18 -93 -23 -133 -6 -41 -17 -81 -25 -90 -8 -9 -38 -62 -67
-117 -100 -194 -205 -356 -274 -424 -64 -63 -80 -60 -91 17 -6 49 18 662 35
862 5 63 10 173 10 244 0 121 -1 131 -27 177 -22 38 -37 52 -73 66 -25 10 -48
19 -51 21 -14 7 -84 -62 -101 -99 -26 -59 -49 -231 -69 -519 -12 -180 -19
-215 -55 -268 -13 -19 -24 -41 -24 -49 0 -8 -8 -27 -19 -41 -10 -15 -22 -38
-26 -52 -4 -14 -23 -48 -41 -76 -19 -28 -34 -55 -34 -60 0 -4 -19 -46 -42 -92
-36 -71 -54 -94 -109 -138 -113 -92 -125 -79 -115 124 4 81 12 179 17 217 6
39 12 188 15 332 6 245 5 267 -16 360 -30 131 -75 212 -138 250 -42 25 -58 28
-157 31 -169 5 -235 -22 -372 -151 -28 -27 -56 -46 -62 -43 -5 4 -25 34 -42
67 -18 33 -44 68 -58 78 -45 32 -122 52 -199 53 -91 0 -153 -28 -197 -89 -44
-61 -104 -160 -115 -189 -7 -16 -16 -24 -28 -22 -15 3 -17 15 -13 120 3 104 1
120 -17 150 -48 78 -115 117 -160 95 -43 -20 -87 -105 -102 -194 -7 -43 -17
-96 -22 -118 -6 -22 -14 -132 -18 -245 l-8 -205 -37 -80 c-49 -108 -99 -189
-156 -255 -26 -30 -69 -89 -97 -130 -61 -93 -78 -109 -169 -159 -117 -64 -151
-64 -192 2 -38 62 -54 175 -55 392 l-1 200 64 41 c77 51 191 161 233 227 96
149 104 323 19 408 -89 89 -300 79 -382 -18 -13 -16 -32 -49 -43 -73 -10 -25
-34 -79 -53 -120 -41 -86 -75 -204 -98 -335 -18 -106 -22 -405 -6 -448 6 -16
11 -39 11 -52 0 -12 10 -59 23 -103 25 -85 95 -201 154 -252 72 -63 201 -59
333 11 109 58 263 208 345 337 83 129 93 140 103 124 5 -8 11 -107 14 -220 4
-179 7 -213 25 -252 24 -56 44 -72 79 -68 51 6 64 41 85 219 18 163 25 202 74
414 45 198 72 288 129 428 74 183 96 223 150 284 75 83 155 107 194 58 30 -38
56 -158 57 -260 0 -83 -3 -95 -36 -165 -40 -83 -47 -103 -83 -270 -51 -235
-42 -346 33 -412 30 -26 39 -29 74 -24 58 10 125 52 146 95 84 164 106 274
106 526 0 110 -4 224 -8 254 l-8 55 97 93 c103 97 124 109 247 133 70 14 95 2
129 -63 21 -38 23 -54 21 -171 -2 -70 -9 -165 -18 -210 -8 -44 -19 -126 -25
-181 -6 -55 -15 -136 -20 -180 -6 -44 -10 -150 -11 -235 0 -234 26 -310 125
-356 61 -28 81 -29 158 -8 41 12 74 31 114 66 77 67 175 196 228 298 50 98 61
102 69 28 30 -251 95 -374 210 -400 122 -27 297 104 401 302 16 30 37 66 46
80 9 14 29 45 44 69 37 58 47 46 76 -94 27 -136 55 -200 115 -264 62 -66 96
-81 187 -81 105 0 194 34 279 108 36 31 86 71 111 89 32 21 60 54 89 105 24
40 65 101 91 136 26 35 52 72 58 82 6 11 17 20 25 20 16 0 21 -35 30 -200 15
-295 21 -347 38 -373 31 -48 145 -59 168 -16 5 10 14 56 20 101 5 46 16 115
24 153 8 39 19 106 24 150 13 108 56 312 86 411 14 45 25 90 25 99 0 10 9 36
19 59 11 23 37 82 59 133 22 50 52 111 66 135 15 24 41 64 57 90 50 83 178
146 227 113 10 -8 30 -38 43 -67 21 -47 24 -68 24 -183 0 -127 -16 -324 -35
-435 -15 -86 -27 -364 -20 -476 6 -88 11 -109 37 -155 64 -114 171 -117 327
-10 60 42 183 207 255 343 17 31 36 60 42 63 22 14 36 -21 53 -125 20 -125 55
-204 121 -273 57 -60 97 -77 178 -77 116 0 168 25 350 165 62 48 98 93 211
262 38 56 73 83 80 61 3 -7 7 -184 10 -393 2 -209 7 -389 10 -400 4 -11 2 -27
-3 -35 -9 -13 -15 -13 -43 -1 -129 53 -299 101 -356 101 -15 0 -58 -7 -95 -17
-92 -22 -137 -62 -137 -123 0 -90 45 -137 173 -179 57 -19 82 -22 160 -18 51
3 126 15 167 27 100 29 127 34 133 23 3 -5 17 -79 32 -164 44 -264 60 -330
102 -419 50 -104 74 -134 132 -171 38 -25 55 -29 113 -29 124 0 170 35 176
133 7 116 -47 252 -151 381 -97 118 -100 127 -110 337 -9 181 -9 188 12 232
12 24 52 78 89 118 87 97 123 144 151 199 13 25 39 65 60 90 47 57 135 193
189 290 38 71 41 81 44 167 1 50 -1 95 -4 99 -12 12 -36 -16 -63 -72 -14 -30
-51 -91 -82 -137 -103 -150 -110 -162 -138 -227 -16 -36 -43 -83 -60 -105 -17
-22 -59 -81 -92 -130 -65 -98 -86 -120 -103 -110 -12 7 -6 507 11 855 12 248
18 272 91 375 37 52 108 187 132 252 8 21 30 83 50 137 20 55 42 109 50 121
18 28 68 176 105 310 21 78 33 153 41 260 24 323 14 477 -36 553 -61 96 -73
105 -158 127 -73 19 -96 19 -148 -1 -58 -23 -103 -68 -136 -134 -14 -30 -39
-76 -54 -102 -15 -26 -32 -67 -38 -90 -7 -24 -27 -88 -45 -143 -55 -166 -83
-354 -115 -780 -5 -77 -15 -187 -20 -245 -6 -58 -17 -235 -25 -393 l-15 -288
-62 -102 c-211 -347 -357 -510 -484 -538 -94 -21 -126 25 -144 207 -11 118
-14 403 -4 428 3 9 34 34 67 58 103 69 174 138 206 197 100 190 109 346 24
421 -51 45 -96 62 -173 63 -79 1 -142 -25 -193 -82 -43 -47 -123 -192 -142
-257 -14 -48 -48 -230 -65 -346 -9 -62 -11 -67 -51 -118 -23 -30 -65 -101
-150 -260 -10 -19 -36 -71 -56 -115 -27 -57 -54 -96 -97 -138 -33 -32 -67 -56
-75 -55 -24 5 -26 172 -5 343 27 212 25 566 -4 701 -53 254 -117 320 -301 312
-148 -7 -188 -37 -328 -248 -89 -133 -157 -298 -188 -452 -3 -16 -9 -28 -15
-28 -16 0 -21 39 -22 179 -1 134 0 141 31 214 17 42 42 123 56 180 13 57 35
135 49 173 13 38 29 95 36 126 6 32 19 67 29 79 l17 21 612 -1 c421 -1 618 1
632 9 15 8 20 21 20 51 0 33 -4 41 -26 49 -15 6 -240 10 -569 10 -607 0 -564
-5 -587 73 -13 43 -14 137 -7 497 4 197 -6 295 -37 345 -6 11 -15 33 -18 48
-9 40 -86 113 -132 126 -78 22 -160 7 -226 -41 -14 -10 -23 -4 -64 41 -130
145 -316 307 -416 363 -17 9 -40 25 -52 36 -52 47 -185 120 -248 135 -38 10
-47 45 -18 69 12 10 34 18 49 18 35 0 92 21 173 62 183 94 259 206 288 421 6
45 12 93 14 107 3 14 18 63 35 110 71 191 80 226 95 373 20 183 20 269 0 377
-8 47 -19 108 -24 135 -5 28 -16 82 -24 120 -8 39 -17 93 -20 122 -3 28 -10
63 -16 78 -23 60 -6 86 70 109 77 23 298 132 344 170 78 64 240 236 263 279
137 259 176 427 155 660 -15 162 -20 181 -89 337 -67 149 -81 172 -167 272
-81 94 -176 167 -316 241 -212 112 -414 142 -712 102 -54 -7 -58 -6 -84 21
-14 16 -38 47 -52 69 -68 108 -293 291 -399 325 -21 7 -58 23 -83 35 -90 45
-335 68 -485 45z m345 -130 c112 -23 238 -70 290 -108 19 -14 82 -69 139 -121
110 -102 149 -158 132 -190 -6 -10 -59 -47 -118 -82 -79 -47 -132 -88 -200
-155 -111 -110 -127 -152 -70 -188 25 -16 61 9 161 112 101 103 168 152 258
189 109 44 206 63 348 70 120 5 149 2 262 -21 70 -14 156 -39 190 -54 94 -43
204 -118 227 -154 11 -18 43 -55 71 -83 101 -97 187 -251 217 -385 23 -107 23
-347 0 -465 -31 -154 -103 -281 -236 -418 -87 -90 -152 -138 -274 -200 -85
-44 -190 -73 -220 -61 -17 6 -52 103 -62 174 -3 24 -11 50 -17 57 -16 19 -72
16 -99 -6 -26 -21 -25 -27 26 -171 53 -151 94 -320 102 -422 7 -97 2 -100
-111 -69 -151 42 -201 52 -306 62 -167 15 -480 -8 -613 -45 -28 -8 -77 -18
-107 -21 -30 -4 -62 -11 -71 -16 -28 -14 -257 -57 -374 -69 -60 -7 -113 -14
-117 -17 -15 -8 -376 -3 -449 7 -239 33 -424 83 -458 124 -17 21 -10 100 20
211 34 125 117 382 135 416 18 35 76 65 144 74 25 4 63 13 85 20 73 25 238 53
384 66 151 13 464 7 534 -10 33 -8 42 -6 58 10 25 25 26 85 2 97 -21 11 -331
31 -418 28 -273 -11 -506 -44 -690 -98 -38 -11 -80 -22 -92 -25 -46 -11 -81
-63 -144 -213 -77 -184 -77 -184 -191 -145 -110 37 -163 65 -229 123 -29 26
-84 71 -120 100 -48 39 -78 73 -111 130 -126 212 -168 350 -168 544 0 160 27
256 118 429 65 123 80 144 169 232 54 53 122 115 152 136 84 63 290 126 426
130 38 1 72 4 76 6 12 8 192 -16 261 -34 191 -52 235 -79 414 -253 118 -115
130 -120 174 -74 l21 23 -45 59 c-74 98 -165 179 -256 229 -95 52 -140 90
-140 117 0 76 199 271 345 338 54 25 182 63 245 73 74 12 229 5 320 -13z m910
-2830 c47 -12 118 -37 158 -56 61 -28 75 -39 88 -69 24 -58 39 -247 26 -335
-6 -41 -14 -103 -17 -138 -12 -125 -68 -306 -123 -397 -54 -89 -102 -154 -122
-165 -33 -18 -162 -12 -200 9 -19 10 -46 22 -59 26 -32 10 -214 128 -276 180
-101 83 -181 115 -292 115 -79 0 -153 -32 -208 -89 -47 -49 -71 -51 -111 -10
-16 17 -56 45 -89 62 -56 29 -67 32 -160 32 -97 0 -102 -1 -155 -35 -30 -19
-73 -48 -95 -65 -22 -17 -56 -41 -76 -53 -20 -12 -53 -35 -74 -52 -21 -17 -82
-51 -134 -77 -190 -92 -304 -75 -357 52 -9 22 -31 72 -49 110 -125 266 -170
569 -120 826 7 39 18 76 24 82 14 14 75 11 110 -7 16 -9 82 -27 147 -41 66
-14 135 -31 154 -37 20 -6 146 -13 300 -15 239 -4 276 -3 375 16 119 23 193
41 295 71 93 27 155 40 325 66 131 20 180 22 390 20 211 -3 250 -6 325 -26z
m-1247 -995 c91 -76 117 -156 77 -236 -49 -94 -146 -188 -228 -218 -125 -46
-225 -64 -357 -64 -136 0 -176 7 -286 50 -112 43 -216 135 -193 171 9 13 25
16 95 13 77 -2 95 1 215 42 135 45 206 87 329 197 84 76 123 90 230 87 66 -2
73 -5 118 -42z m569 21 c21 -10 72 -48 115 -85 107 -91 141 -112 279 -166 106
-43 130 -48 217 -53 75 -4 100 -8 104 -20 15 -37 -85 -152 -131 -152 -13 0
-48 -11 -77 -24 -88 -38 -158 -49 -293 -42 -151 8 -242 27 -320 67 -67 35
-162 102 -188 134 -34 39 -51 101 -46 167 7 107 50 166 141 189 49 12 158 4
199 -15z m-342 -446 c58 -56 145 -111 202 -129 21 -7 40 -16 43 -21 3 -4 34
-16 70 -25 65 -18 91 -39 76 -63 -10 -16 -140 -51 -231 -62 -294 -35 -690 11
-690 81 0 13 25 27 69 39 58 15 164 66 199 94 15 12 52 37 81 56 30 19 66 45
79 57 14 13 30 23 37 23 7 0 36 -23 65 -50z m-592 -336 c37 -15 86 -35 109
-45 40 -18 101 -31 243 -50 154 -20 205 -21 298 -5 50 9 104 16 118 16 15 0
47 7 73 15 25 8 78 24 116 36 39 12 90 30 114 41 31 14 54 18 80 13 48 -9 129
-43 166 -70 17 -12 59 -36 95 -54 115 -58 292 -172 345 -223 109 -105 155
-148 190 -179 49 -43 102 -109 115 -143 6 -18 3 -51 -14 -123 -56 -238 -62
-287 -71 -558 -5 -144 -10 -194 -21 -205 -12 -12 -103 -14 -641 -15 l-628 0
-22 46 c-26 55 -75 89 -128 89 -51 0 -132 -46 -160 -91 l-23 -36 -191 -6
c-190 -5 -248 0 -270 27 -9 10 -12 139 -11 467 0 498 3 555 31 570 10 5 94 10
186 11 92 0 176 5 186 10 14 7 17 19 15 46 -3 36 -4 37 -53 44 -27 4 -137 7
-244 8 -166 1 -196 -1 -210 -15 -14 -14 -16 -78 -18 -572 -3 -555 -3 -556 -24
-579 l-22 -23 -546 4 c-300 2 -551 4 -558 4 -29 2 -34 39 -18 143 9 57 21 119
27 138 21 70 110 276 133 305 12 17 43 71 68 121 47 94 214 306 307 389 24 22
83 76 130 121 47 45 107 91 135 104 47 22 103 56 200 120 22 14 65 37 95 49
30 13 80 36 110 52 68 36 103 36 188 3z m5144 -586 c17 -11 42 -46 57 -77 24
-52 26 -66 26 -191 0 -150 -6 -218 -31 -329 -21 -99 -63 -259 -76 -294 -6 -15
-16 -55 -23 -90 -20 -99 -46 -190 -61 -212 -8 -11 -14 -27 -14 -36 0 -23 -105
-233 -125 -249 -9 -7 -18 -10 -22 -6 -3 3 -1 63 5 133 7 71 17 227 22 348 6
121 15 258 20 305 6 47 15 147 20 223 5 76 12 142 15 147 3 5 10 44 15 87 12
96 47 207 77 239 27 30 56 30 95 2z m-2769 -6 c28 -31 47 -89 61 -185 14 -102
14 -193 -1 -208 -15 -15 -60 29 -77 76 -7 22 -31 78 -51 124 -35 78 -37 86
-25 125 24 82 58 107 93 68z m-58 -459 c14 -49 38 -119 52 -158 51 -132 38
-312 -24 -336 -40 -15 -76 -7 -89 19 -14 29 -28 385 -19 486 7 71 9 76 31 76
20 0 26 -10 49 -87z m8 -645 c8 -12 8 -35 -1 -80 -6 -35 -14 -84 -18 -109 -3
-25 -10 -52 -14 -60 -18 -28 -29 7 -36 113 -6 92 -4 111 10 133 19 28 43 30
59 3z m-4663 -340 c48 -52 39 -126 -35 -274 -46 -92 -63 -117 -101 -143 -69
-50 -78 -41 -69 76 7 93 37 208 70 273 20 38 76 90 97 90 10 0 27 -10 38 -22z
m6404 -22 c18 -36 18 -46 7 -112 -7 -43 -25 -96 -43 -130 -37 -68 -139 -174
-168 -174 -24 0 -24 4 -10 153 13 135 45 221 102 272 53 48 86 45 112 -9z
m-5098 -652 c12 -48 -2 -247 -20 -281 -21 -41 -34 -49 -54 -30 -13 14 -14 31
-2 152 10 105 18 142 32 161 25 31 36 30 44 -2z m5279 -1057 c66 -17 137 -63
133 -85 -5 -24 -84 -51 -153 -51 -75 -1 -129 14 -173 47 -40 31 -41 69 -2 89
33 17 133 16 195 0z m695 -641 c57 -120 69 -176 46 -211 -30 -45 -89 -22 -114
45 -17 44 -26 248 -12 265 7 8 17 12 22 9 5 -3 31 -52 58 -108z"/>
<path d="M5359 4117 c-26 -18 -35 -31 -37 -58 -4 -43 12 -59 66 -66 36 -5 40
-3 60 31 12 21 22 43 22 49 0 10 -62 67 -73 67 -2 0 -19 -10 -38 -23z"/>
<path d="M5930 4131 c-39 -9 -70 -34 -70 -56 1 -56 29 -85 85 -85 36 0 58 47
43 92 -14 44 -28 56 -58 49z"/>
<path d="M5370 3713 c-29 -11 -50 -36 -50 -60 0 -35 47 -75 84 -71 26 3 33 9
45 44 13 37 13 43 -5 67 -18 25 -42 32 -74 20z"/>
<path d="M5893 3700 c-18 -11 -33 -27 -33 -36 0 -19 19 -56 34 -66 17 -12 71
-9 84 4 29 29 2 118 -36 118 -9 0 -32 -9 -49 -20z"/>
<path d="M855 4384 c-54 -27 -82 -58 -123 -135 -108 -202 -182 -527 -217 -949
-28 -334 -14 -930 29 -1230 21 -146 65 -360 82 -392 8 -15 14 -33 14 -40 0
-22 50 -121 72 -145 16 -17 33 -23 64 -23 35 0 47 5 69 32 25 30 27 37 22 107
-2 42 -11 121 -20 176 -41 255 -53 419 -63 865 l-7 285 58 150 c96 250 122
325 160 460 37 134 236 496 317 578 59 59 106 80 179 79 145 0 257 -141 309
-388 5 -27 16 -71 25 -99 35 -123 57 -318 62 -565 8 -351 -15 -578 -82 -820
-14 -52 -34 -124 -44 -160 -32 -113 -57 -166 -120 -254 -74 -103 -147 -169
-221 -203 -46 -21 -71 -25 -155 -26 -85 -2 -106 1 -141 20 -53 28 -107 91
-139 161 -22 48 -27 53 -52 50 -42 -5 -51 -42 -28 -119 16 -50 30 -73 73 -116
135 -133 333 -167 532 -93 157 58 227 109 329 235 82 102 127 175 149 242 11
33 25 68 30 79 61 113 127 318 163 514 22 116 24 149 23 445 -1 303 -3 326
-27 436 -32 149 -95 322 -170 469 -63 124 -106 177 -177 218 -25 14 -62 38
-83 53 -43 31 -151 59 -224 59 -75 -1 -157 -25 -210 -61 -45 -31 -113 -97
-113 -110 0 -8 -96 -166 -123 -203 -26 -35 -72 -128 -83 -166 -4 -14 -27 -68
-52 -120 -25 -52 -60 -131 -77 -175 -45 -111 -61 -107 -58 15 4 151 53 412
101 538 31 82 58 126 107 175 32 32 37 42 31 69 -4 18 -21 47 -38 65 -27 28
-39 33 -77 33 -26 0 -59 -7 -76 -16z"/>
<path d="M4557 1414 c-4 -4 -476 -9 -1049 -10 -967 -4 -1044 -5 -1056 -21 -16
-22 -15 -55 2 -78 14 -19 65 -20 3207 -20 2633 0 3195 2 3206 13 20 21 17 93
-4 98 -10 3 -974 6 -2143 7 -1169 2 -2132 6 -2141 10 -8 4 -18 5 -22 1z"/>
<path d="M2855 1142 c-2 -2 -63 -5 -136 -6 -115 -1 -133 -3 -143 -19 -14 -23
6 -37 56 -37 62 0 68 -18 67 -210 -1 -187 -9 -268 -30 -281 -8 -5 -28 -8 -44
-7 -17 1 -36 -2 -43 -6 -27 -17 -2 -58 35 -56 10 0 72 2 138 3 109 2 120 4
123 21 5 25 -21 45 -51 39 -41 -8 -61 18 -65 88 -2 35 1 76 7 92 10 27 12 27
99 27 149 0 221 35 264 130 31 71 -26 177 -109 204 -46 14 -159 27 -168 18z
m130 -82 c61 -30 80 -82 51 -139 -25 -48 -60 -63 -159 -69 -113 -6 -117 -2
-117 114 0 74 2 84 22 98 34 24 151 21 203 -4z"/>
<path d="M6147 1144 c-3 -4 -60 -6 -126 -6 -91 0 -123 -3 -131 -14 -20 -23 -4
-44 32 -44 18 0 39 -4 46 -9 12 -7 77 -167 117 -286 24 -70 96 -229 112 -247
30 -33 60 -23 86 30 35 70 143 353 168 440 8 29 24 53 46 69 18 14 33 31 33
39 0 21 -36 35 -67 27 -16 -4 -66 -7 -113 -7 -84 -1 -85 -1 -85 -26 0 -21 5
-25 30 -28 55 -5 74 -12 79 -30 6 -18 -116 -378 -133 -395 -17 -17 -27 1 -55
90 -15 48 -45 133 -67 189 -21 55 -39 105 -39 112 0 16 33 32 67 32 35 0 54
16 45 39 -9 25 -32 38 -45 25z"/>
<path d="M4805 1098 c-2 -13 -6 -39 -7 -58 -2 -28 -9 -38 -33 -49 -46 -22 -63
-61 -27 -61 10 0 27 -6 37 -14 18 -13 20 -28 20 -158 0 -161 10 -193 68 -228
41 -25 83 -25 124 0 41 24 58 52 73 117 13 59 2 93 -31 93 -23 0 -39 -35 -39
-89 0 -44 -14 -61 -50 -61 -54 0 -65 28 -68 174 -1 72 2 137 7 145 5 8 33 16
65 19 45 4 56 8 56 22 0 28 -25 42 -63 35 -46 -9 -67 13 -67 69 0 23 -5 47
-12 54 -20 20 -47 14 -53 -10z"/>
<path d="M3915 975 c-85 -35 -118 -81 -130 -181 -8 -73 12 -159 46 -203 13
-16 42 -41 64 -56 37 -25 45 -26 119 -21 86 6 138 31 172 84 31 48 16 110 -23
95 -7 -3 -23 -23 -35 -45 -55 -96 -158 -103 -236 -14 -34 39 -41 76 -18 96 11
8 58 11 159 9 178 -4 182 -2 173 85 -8 78 -34 119 -94 144 -79 34 -128 36
-197 7z m156 -55 c25 -13 46 -34 57 -56 16 -35 16 -36 -3 -51 -16 -12 -40 -14
-130 -8 -60 3 -113 11 -116 17 -12 19 3 48 44 83 48 41 88 45 148 15z"/>
<path d="M4483 980 c-27 -18 -38 -20 -65 -12 -55 17 -126 21 -144 7 -27 -19
-10 -45 30 -45 61 0 66 -14 66 -175 0 -158 -6 -175 -60 -175 -31 0 -47 -25
-29 -46 8 -10 39 -13 122 -11 108 2 112 3 115 25 3 18 -4 26 -31 37 -19 8 -37
22 -41 30 -10 26 -7 206 4 246 14 49 49 79 93 81 68 2 114 -55 67 -84 -44 -28
-1 -99 50 -83 30 10 60 63 60 107 0 60 -62 106 -154 114 -41 4 -58 1 -83 -16z"/>
<path d="M5272 990 c-90 -21 -148 -95 -159 -204 -10 -96 40 -209 115 -258 33
-22 138 -24 185 -4 66 27 137 144 137 227 0 84 -53 195 -107 222 -35 18 -128
27 -171 17z m145 -74 c75 -63 71 -250 -6 -320 -13 -12 -41 -21 -75 -24 -48 -4
-56 -1 -88 27 -87 76 -69 303 26 330 60 18 112 13 143 -13z"/>
<path d="M6704 976 c-85 -40 -110 -104 -57 -145 23 -19 29 -20 47 -7 15 9 21
25 22 51 1 25 8 43 19 52 27 19 85 16 123 -7 27 -17 32 -25 32 -59 0 -21 -6
-44 -13 -50 -8 -6 -48 -17 -90 -25 -142 -27 -202 -68 -201 -135 3 -93 71 -146
183 -139 49 3 74 9 97 26 l31 23 39 -26 c45 -31 94 -29 128 4 27 28 35 131 12
150 -22 19 -46 -2 -46 -41 0 -53 -36 -89 -56 -56 -4 6 -6 74 -5 150 1 84 -2
153 -9 174 -15 43 -63 69 -145 78 -51 6 -68 3 -111 -18z m186 -281 c0 -52 -19
-83 -65 -105 -60 -29 -100 -26 -136 9 -35 35 -36 52 -6 85 22 25 87 42 175 45
30 1 32 -1 32 -34z"/>
<path d="M7357 978 c-42 -18 -53 -20 -81 -10 -45 17 -111 15 -126 -3 -15 -19
-5 -35 24 -35 12 0 30 -6 41 -13 16 -12 18 -29 17 -167 -1 -158 -4 -169 -43
-170 -25 0 -44 -27 -31 -43 8 -10 41 -13 119 -11 134 2 125 0 121 27 -2 17
-11 23 -35 25 -50 5 -63 32 -63 132 1 127 12 169 54 207 42 39 82 43 114 13
25 -23 29 -68 8 -76 -40 -15 -16 -74 30 -74 31 0 64 45 64 87 0 100 -110 158
-213 111z"/>
<path d="M7770 991 c-102 -33 -152 -109 -102 -154 41 -37 86 -10 75 44 -13 71
139 79 177 10 29 -55 -4 -89 -103 -107 -142 -24 -202 -67 -200 -142 1 -40 26
-78 73 -109 44 -31 139 -32 195 -3 47 24 59 25 75 5 20 -24 78 -30 116 -12 52
25 71 115 34 158 -20 24 -20 24 -35 5 -8 -11 -15 -34 -15 -52 0 -58 -53 -82
-65 -30 -3 11 -4 85 -3 163 3 130 1 144 -18 170 -11 15 -32 33 -46 40 -32 16
-126 25 -158 14z m155 -280 c3 -10 -2 -38 -11 -60 -41 -104 -216 -108 -216 -6
0 43 31 65 103 74 105 14 117 13 124 -8z"/>
<path d="M8335 991 c-90 -16 -135 -63 -135 -140 0 -31 7 -49 31 -76 33 -37 68
-51 162 -60 96 -11 124 -59 68 -116 -33 -32 -67 -37 -136 -18 -52 14 -73 34
-81 76 -6 33 -27 53 -41 39 -10 -10 -13 -160 -3 -176 7 -11 14 -11 38 -1 22 9
36 10 50 2 12 -6 51 -11 88 -11 116 0 184 57 184 154 0 42 -3 48 -40 75 -29
21 -64 33 -127 45 -47 9 -95 24 -105 33 -30 27 -20 73 21 100 70 47 155 18
167 -57 7 -42 30 -59 51 -37 11 11 13 31 7 91 l-7 76 -46 -1 c-25 0 -59 2 -76
4 -16 3 -48 2 -70 -2z"/>
<path d="M3488 973 c-15 -19 -2 -43 25 -43 13 0 31 -6 41 -13 17 -12 18 -26
14 -138 -3 -104 -7 -129 -23 -151 -28 -38 -80 -61 -122 -55 -78 13 -96 55
-100 227 -4 187 -1 180 -72 180 -33 0 -66 -3 -75 -6 -29 -11 -17 -33 23 -44
21 -5 42 -17 45 -26 3 -9 6 -76 6 -150 0 -157 8 -180 73 -219 58 -34 141 -35
197 -3 38 22 40 22 72 6 35 -18 105 -22 127 -9 23 14 8 44 -26 53 -51 13 -55
30 -48 211 4 92 2 168 -3 175 -12 18 -140 22 -154 5z"/>
<path d="M5623 784 c-14 -37 10 -49 105 -52 85 -3 92 -1 103 19 19 36 -10 49
-113 49 -73 0 -90 -3 -95 -16z"/>
</g>
</svg>
